<?xml version="1.0" standalone="no"?>
<!DOCTYPE svg PUBLIC "-//W3C//DTD SVG 20010904//EN"
 "http://www.w3.org/TR/2001/REC-SVG-20010904/DTD/svg10.dtd">
<svg version="1.0" xmlns="http://www.w3.org/2000/svg"
 width="512.000000pt" height="512.000000pt" viewBox="0 0 512.000000 512.000000"
 preserveAspectRatio="xMidYMid meet">
<metadata>
Created by potrace 1.14, written by Peter Selinger 2001-2017
</metadata>
<g transform="translate(0.000000,512.000000) scale(0.100000,-0.100000)"
fill="#000000" stroke="none">
<path d="M603 5110 c-12 -5 -29 -20 -38 -34 -15 -23 -17 -225 -17 -2516 0
-2288 2 -2493 17 -2516 9 -14 27 -29 41 -34 16 -7 750 -10 1966 -10 l1940 0
29 29 c18 18 29 40 29 58 1 15 1 855 1 1865 0 1190 -3 1843 -9 1855 -11 20
-1278 1288 -1302 1303 -19 12 -2627 12 -2657 0z m2518 -192 c0 -7 1 -278 2
-601 l2 -589 33 -29 32 -29 595 0 c327 0 595 -3 596 -7 0 -5 1 -786 1 -1738
l1 -1730 -1821 -3 c-1730 -2 -1822 -1 -1823 15 -1 23 -1 4706 0 4716 1 4 536
7 1191 7 945 0 1190 -3 1191 -12z m658 -588 c254 -254 461 -463 461 -465 0 -3
-209 -5 -464 -5 l-464 0 -1 465 c0 256 2 465 4 465 2 0 211 -207 464 -460z"/>
<path d="M1917 4584 c-1 -1 -20 -5 -42 -7 -239 -29 -395 -281 -316 -509 58
-168 196 -266 374 -266 216 0 386 173 385 392 -1 153 -81 278 -225 351 -42 21
-166 48 -176 39z m108 -216 c113 -59 140 -222 52 -316 -98 -106 -286 -68 -339
67 -13 33 -12 104 2 147 16 47 89 111 137 119 21 4 43 8 48 9 16 4 67 -9 100
-26z"/>
<path d="M1767 3723 c-1 -1 -20 -4 -42 -6 -151 -17 -299 -157 -321 -304 -10
-64 -11 -236 -2 -265 13 -38 41 -59 84 -63 30 -3 42 2 65 25 16 16 29 37 30
47 1 10 2 63 3 118 2 55 6 111 11 125 13 42 54 89 98 112 39 20 57 21 237 22
181 0 198 -2 237 -22 44 -23 85 -70 98 -112 5 -14 9 -75 10 -137 1 -86 5 -117
19 -138 34 -52 103 -56 147 -9 22 24 24 33 23 147 0 175 -25 253 -107 339 -56
58 -122 95 -207 115 -15 4 -380 10 -383 6z"/>
<path d="M1453 2500 c-31 -13 -56 -55 -55 -93 1 -45 49 -87 100 -87 20 0 512
-1 1093 -1 781 0 1062 3 1081 12 69 31 64 142 -8 169 -32 13 -2181 12 -2211 0z"/>
<path d="M1441 1794 c-28 -20 -49 -68 -43 -99 2 -13 15 -34 29 -47 l25 -23
1104 -2 1104 -3 30 28 c51 45 37 129 -26 153 -16 6 -439 9 -1113 9 -983 0
-1089 -2 -1110 -16z"/>
<path d="M1455 1101 c-75 -31 -74 -143 2 -172 16 -6 431 -8 1119 -7 l1094 3
25 26 c46 45 28 127 -31 149 -31 12 -2180 12 -2209 1z"/>
</g>
</svg>
